<svg width="48" height="48" viewBox="0 0 48 48" fill="none" xmlns="http://www.w3.org/2000/svg">
<circle cx="24" cy="24" r="24" fill="#685FD4" fill-opacity="0.35"/>
<mask id="mask0_683_16352" style="mask-type:alpha" maskUnits="userSpaceOnUse" x="6" y="11" width="36" height="26">
<rect x="6" y="11" width="35.1619" height="26" fill="#D9D9D9"/>
</mask>
<g mask="url(#mask0_683_16352)">
<path d="M21.8171 33.7487C21.2212 33.7487 20.7112 33.5365 20.2868 33.1122C19.8625 32.6879 19.6504 32.1779 19.6504 31.582V16.4154C19.6504 15.8195 19.8625 15.3095 20.2868 14.8852C20.7112 14.4609 21.2212 14.2487 21.8171 14.2487H26.34C26.5386 13.6168 26.9268 13.0977 27.5046 12.6914C28.0823 12.2852 28.7143 12.082 29.4004 12.082C30.1226 12.082 30.7681 12.2852 31.3369 12.6914C31.9056 13.0977 32.2893 13.6168 32.4879 14.2487H36.9837C37.5796 14.2487 38.0896 14.4609 38.5139 14.8852C38.9382 15.3095 39.1504 15.8195 39.1504 16.4154V31.582C39.1504 32.1779 38.9382 32.6879 38.5139 33.1122C38.0896 33.5365 37.5796 33.7487 36.9837 33.7487H21.8171ZM21.8171 31.582H36.9837V16.4154H34.8171V19.6654H23.9837V16.4154H21.8171V31.582ZM30.1723 16.1039C30.3799 15.8963 30.4837 15.639 30.4837 15.332C30.4837 15.0251 30.3799 14.7678 30.1723 14.5602C29.9646 14.3525 29.7073 14.2487 29.4004 14.2487C29.0934 14.2487 28.8362 14.3525 28.6285 14.5602C28.4209 14.7678 28.3171 15.0251 28.3171 15.332C28.3171 15.639 28.4209 15.8963 28.6285 16.1039C28.8362 16.3115 29.0934 16.4154 29.4004 16.4154C29.7073 16.4154 29.9646 16.3115 30.1723 16.1039Z" fill="#767492"/>
<path d="M9.21875 16.6992V19.0722H16.3997L17.9396 16.6992H9.21875Z" fill="#767492"/>
<path d="M9.21875 22.3906V24.7636H16.3997L17.9396 22.3906H9.21875Z" fill="#767492"/>
<path d="M9.21875 29.0781V31.4511H16.3997L17.9396 29.0781H9.21875Z" fill="#767492"/>
</g>
</svg>
