<svg width="48" height="48" viewBox="0 0 48 48" fill="none" xmlns="http://www.w3.org/2000/svg">
<circle cx="24" cy="24" r="24" fill="#F2C94C" fill-opacity="0.35"/>
<mask id="mask0_683_16362" style="mask-type:alpha" maskUnits="userSpaceOnUse" x="7" y="10" width="33" height="27">
<rect x="7" y="10" width="32.8909" height="27" fill="#F3E4BC"/>
</mask>
<g mask="url(#mask0_683_16362)">
<path d="M23.0156 13.375V11.125H29.7656V13.375H23.0156ZM25.2656 25.75H27.5156V19H25.2656V25.75ZM22.4672 33.9484C21.2391 33.4141 20.1656 32.6875 19.2469 31.7688C18.3281 30.85 17.6016 29.7766 17.0672 28.5484C16.5328 27.3203 16.2656 26.0125 16.2656 24.625C16.2656 23.2375 16.5328 21.9297 17.0672 20.7016C17.6016 19.4734 18.3281 18.4 19.2469 17.4813C20.1656 16.5625 21.2391 15.8359 22.4672 15.3016C23.6953 14.7672 25.0031 14.5 26.3906 14.5C27.5531 14.5 28.6687 14.6875 29.7375 15.0625C30.8062 15.4375 31.8094 15.9813 32.7469 16.6938L34.3219 15.1188L35.8969 16.6938L34.3219 18.2688C35.0344 19.2063 35.5781 20.2094 35.9531 21.2781C36.3281 22.3469 36.5156 23.4625 36.5156 24.625C36.5156 26.0125 36.2484 27.3203 35.7141 28.5484C35.1797 29.7766 34.4531 30.85 33.5344 31.7688C32.6156 32.6875 31.5422 33.4141 30.3141 33.9484C29.0859 34.4828 27.7781 34.75 26.3906 34.75C25.0031 34.75 23.6953 34.4828 22.4672 33.9484ZM31.9594 30.1938C33.4969 28.6563 34.2656 26.8 34.2656 24.625C34.2656 22.45 33.4969 20.5938 31.9594 19.0563C30.4219 17.5188 28.5656 16.75 26.3906 16.75C24.2156 16.75 22.3594 17.5188 20.8219 19.0563C19.2844 20.5938 18.5156 22.45 18.5156 24.625C18.5156 26.8 19.2844 28.6563 20.8219 30.1938C22.3594 31.7313 24.2156 32.5 26.3906 32.5C28.5656 32.5 30.4219 31.7313 31.9594 30.1938Z" fill="#A79B7D"/>
<path d="M9.20898 16.875V19.2273H16.1482L17.8536 16.875H9.20898Z" fill="#A79B7D"/>
<path d="M7 24.2383V26.5906H15.6446V24.2383H7Z" fill="#A79B7D"/>
<path d="M9.20898 31.3555V33.7077H19.3953L17.1172 31.3555H9.20898Z" fill="#A79B7D"/>
</g>
</svg>
