<svg width="48" height="48" viewBox="0 0 48 48" fill="none" xmlns="http://www.w3.org/2000/svg">
<circle cx="24" cy="24" r="24" fill="#8AB2DC" fill-opacity="0.35"/>
<mask id="mask0_683_16371" style="mask-type:alpha" maskUnits="userSpaceOnUse" x="7" y="11" width="35" height="25">
<rect x="7" y="11" width="35" height="25" fill="#D9D9D9"/>
</mask>
<g mask="url(#mask0_683_16371)">
<path d="M25 33.7407C24.45 33.7407 23.9792 33.5473 23.5875 33.1605C23.1958 32.7737 23 32.3086 23 31.7654V21.8889C23 21.3457 23.1958 20.8807 23.5875 20.4938C23.9792 20.107 24.45 19.9136 25 19.9136H26V17.9383C26 16.572 26.4875 15.4074 27.4625 14.4444C28.4375 13.4815 29.6167 13 31 13C32.3833 13 33.5625 13.4815 34.5375 14.4444C35.5125 15.4074 36 16.572 36 17.9383V19.9136H37C37.55 19.9136 38.0208 20.107 38.4125 20.4938C38.8042 20.8807 39 21.3457 39 21.8889V31.7654C39 32.3086 38.8042 32.7737 38.4125 33.1605C38.0208 33.5473 37.55 33.7407 37 33.7407H25ZM25 31.7654H37V21.8889H25V31.7654ZM32.4125 28.2222C32.8042 27.8354 33 27.3704 33 26.8272C33 26.2839 32.8042 25.8189 32.4125 25.4321C32.0208 25.0453 31.55 24.8519 31 24.8519C30.45 24.8519 29.9792 25.0453 29.5875 25.4321C29.1958 25.8189 29 26.2839 29 26.8272C29 27.3704 29.1958 27.8354 29.5875 28.2222C29.9792 28.6091 30.45 28.8025 31 28.8025C31.55 28.8025 32.0208 28.6091 32.4125 28.2222ZM28 19.9136H34V17.9383C34 17.1152 33.7083 16.4156 33.125 15.8395C32.5417 15.2634 31.8333 14.9753 31 14.9753C30.1667 14.9753 29.4583 15.2634 28.875 15.8395C28.2917 16.4156 28 17.1152 28 17.9383V19.9136Z" fill="#57606C"/>
<path d="M8.92578 16.4492V18.8831H17.8702L19.5924 16.4492H8.92578Z" fill="#57606C"/>
<path d="M9 32.4023V29.9685H17.9444L19.6667 32.4023H9Z" fill="#57606C"/>
<path d="M8.92578 26.6875V24.0538H20.7776V26.6875H8.92578Z" fill="#57606C"/>
</g>
</svg>
