<svg width="33" height="27" viewBox="0 0 33 27" fill="none" xmlns="http://www.w3.org/2000/svg">
<mask id="mask0_758_13811" style="mask-type:alpha" maskUnits="userSpaceOnUse" x="0" y="0" width="33" height="27">
<rect width="32.8909" height="27" fill="#F3E4BC"/>
</mask>
<g mask="url(#mask0_758_13811)">
<path d="M16.0166 3.375V1.125H22.7666V3.375H16.0166ZM18.2666 15.75H20.5166V9H18.2666V15.75ZM15.4682 23.9484C14.24 23.4141 13.1666 22.6875 12.2479 21.7688C11.3291 20.85 10.6025 19.7766 10.0682 18.5484C9.53379 17.3203 9.2666 16.0125 9.2666 14.625C9.2666 13.2375 9.53379 11.9297 10.0682 10.7016C10.6025 9.47344 11.3291 8.4 12.2479 7.48125C13.1666 6.5625 14.24 5.83594 15.4682 5.30156C16.6963 4.76719 18.0041 4.5 19.3916 4.5C20.5541 4.5 21.6697 4.6875 22.7385 5.0625C23.8072 5.4375 24.8104 5.98125 25.7479 6.69375L27.3229 5.11875L28.8979 6.69375L27.3229 8.26875C28.0354 9.20625 28.5791 10.2094 28.9541 11.2781C29.3291 12.3469 29.5166 13.4625 29.5166 14.625C29.5166 16.0125 29.2494 17.3203 28.715 18.5484C28.1807 19.7766 27.4541 20.85 26.5354 21.7688C25.6166 22.6875 24.5432 23.4141 23.315 23.9484C22.0869 24.4828 20.7791 24.75 19.3916 24.75C18.0041 24.75 16.6963 24.4828 15.4682 23.9484ZM24.9603 20.1938C26.4978 18.6563 27.2666 16.8 27.2666 14.625C27.2666 12.45 26.4978 10.5938 24.9603 9.05625C23.4228 7.51875 21.5666 6.75 19.3916 6.75C17.2166 6.75 15.3604 7.51875 13.8229 9.05625C12.2854 10.5938 11.5166 12.45 11.5166 14.625C11.5166 16.8 12.2854 18.6563 13.8229 20.1938C15.3604 21.7313 17.2166 22.5 19.3916 22.5C21.5666 22.5 23.4228 21.7313 24.9603 20.1938Z" fill="white"/>
<path d="M2.20996 6.875V9.22727H9.14916L10.8546 6.875H2.20996Z" fill="white"/>
<path d="M0 14.2383V16.5906H8.6446V14.2383H0Z" fill="white"/>
<path d="M2.20996 21.3555V23.7077H12.3963L10.1182 21.3555H2.20996Z" fill="white"/>
</g>
</svg>
